<?xml version="1.0" standalone="no"?><!DOCTYPE svg PUBLIC "-//W3C//DTD SVG 1.1//EN" "http://www.w3.org/Graphics/SVG/1.1/DTD/svg11.dtd"><svg t="1720158702577" class="icon" viewBox="0 0 1024 1024" version="1.1" xmlns="http://www.w3.org/2000/svg" p-id="5911" xmlns:xlink="http://www.w3.org/1999/xlink" width="200" height="200"><path d="M511.679 11.458c-276.116 0-500.221 224.105-500.221 500.221s224.105 500.863 500.221 500.863 500.863-224.105 500.863-500.221-224.105-500.863-500.863-500.863zM512.963 798.069v1.284l-0.642-0.642-0.642 0.642v-1.284c-443.713-278.685-224.747-489.947-139.343-498.937 39.17-3.853 71.277 10.916 95.678 28.896l-77.056 127.142 128.427 91.825-59.076 83.477 59.076 126.5-16.695-118.795 89.899-97.604-116.868-96.32 92.467-123.932c22.475-14.127 50.729-24.401 84.119-21.19 85.404 8.99 304.37 219.61-139.343 498.937z" p-id="5912" fill="#6585a6"></path></svg>