<?xml version="1.0" standalone="no"?><!DOCTYPE svg PUBLIC "-//W3C//DTD SVG 1.1//EN" "http://www.w3.org/Graphics/SVG/1.1/DTD/svg11.dtd"><svg t="1720149201522" class="icon" viewBox="0 0 1024 1024" version="1.1" xmlns="http://www.w3.org/2000/svg" p-id="1220" xmlns:xlink="http://www.w3.org/1999/xlink" width="200" height="200"><path d="M936.96 332.8c-23.04-56.32-56.32-107.52-99.84-148.48-43.52-43.52-94.72-76.8-148.48-99.84-56.32-23.04-115.2-35.84-176.64-35.84s-120.32 12.8-176.64 35.84c-56.32 23.04-104.96 56.32-148.48 99.84-43.52 43.52-76.8 94.72-99.84 148.48-23.04 56.32-35.84 115.2-35.84 176.64 0 61.44 12.8 120.32 35.84 176.64 23.04 56.32 56.32 107.52 99.84 148.48 43.52 43.52 94.72 76.8 148.48 99.84 56.32 23.04 115.2 35.84 176.64 35.84s120.32-12.8 176.64-35.84c56.32-23.04 107.52-56.32 148.48-99.84 43.52-43.52 76.8-94.72 99.84-148.48 23.04-56.32 35.84-115.2 35.84-176.64 0-61.44-12.8-120.32-35.84-176.64z m-161.28 94.72L537.6 665.6c-5.12 5.12-10.24 5.12-15.36 5.12s-10.24 0-12.8-5.12c-7.68-7.68-7.68-20.48 0-28.16l238.08-238.08c5.12-5.12 7.68-12.8 7.68-23.04s-5.12-20.48-10.24-28.16l-112.64-112.64c-12.8-12.8-30.72-5.12-40.96 7.68l-227.84 227.84-61.44 61.44-23.04 174.08 158.72-25.6-89.6-92.16c-7.68-7.68-7.68-20.48 0-28.16 7.68-7.68 20.48-7.68 28.16 0l117.76 117.76c5.12 5.12 7.68 12.8 5.12 20.48-2.56 7.68-7.68 12.8-15.36 12.8l-225.28 35.84H256c-5.12 0-10.24-2.56-12.8-5.12-5.12-5.12-7.68-10.24-5.12-17.92l28.16-207.36c0-5.12 2.56-7.68 5.12-10.24l38.4-38.4 256-256c30.72-30.72 71.68-33.28 97.28-7.68l112.64 112.64c15.36 15.36 23.04 35.84 23.04 56.32-2.56 23.04-10.24 40.96-23.04 53.76z" fill="#e25232" p-id="1221"></path></svg>