<?xml version="1.0" standalone="no"?><!DOCTYPE svg PUBLIC "-//W3C//DTD SVG 1.1//EN" "http://www.w3.org/Graphics/SVG/1.1/DTD/svg11.dtd"><svg t="1720151442024" class="icon" viewBox="0 0 1024 1024" version="1.1" xmlns="http://www.w3.org/2000/svg" p-id="2168" xmlns:xlink="http://www.w3.org/1999/xlink" width="200" height="200"><path d="M512 48c-162.005333 0-293.333333 131.328-293.333333 293.333333S349.994667 634.666667 512 634.666667 805.333333 503.338667 805.333333 341.333333 674.005333 48 512 48z m0 74.666667c120.746667 0 218.666667 97.92 218.666667 218.666666S632.746667 560 512 560 293.333333 462.08 293.333333 341.333333 391.253333 122.666667 512 122.666667zM789.333333 688H234.666667a144 144 0 1 0 0 288h554.666666a144 144 0 1 0 0-288z m-554.666666 74.666667h554.666666a69.333333 69.333333 0 0 1 0 138.666666H234.666667a69.333333 69.333333 0 0 1 0-138.666666z" fill="#494ed3" p-id="2169"></path></svg>