<?xml version="1.0" standalone="no"?><!DOCTYPE svg PUBLIC "-//W3C//DTD SVG 1.1//EN" "http://www.w3.org/Graphics/SVG/1.1/DTD/svg11.dtd"><svg t="1720151413606" class="icon" viewBox="0 0 1024 1024" version="1.1" xmlns="http://www.w3.org/2000/svg" p-id="25132" xmlns:xlink="http://www.w3.org/1999/xlink" width="200" height="200"><path d="M512 48c-150.229333 0-272 121.770667-272 272S361.770667 592 512 592 784 470.229333 784 320 662.229333 48 512 48z m0 74.666667a197.333333 197.333333 0 1 1 0 394.666666 197.333333 197.333333 0 0 1 0-394.666666zM938.666667 789.333333a32 32 0 0 1 3.072 63.850667L938.666667 853.333333H704a32 32 0 0 1-3.072-63.850666L704 789.333333h234.666667z" fill="#494ed3" p-id="25133"></path><path d="M821.333333 672a32 32 0 0 1 31.850667 28.928L853.333333 704v234.666667a32 32 0 0 1-63.850666 3.072L789.333333 938.666667V704a32 32 0 0 1 32-32zM682.24 666.666667a37.333333 37.333333 0 0 1 3.050667 74.538666l-3.072 0.128H266.666667a80 80 0 0 0-4.266667 159.893334l4.266667 0.106666h415.573333a37.333333 37.333333 0 0 1 3.050667 74.538667l-3.072 0.128H266.666667a154.666667 154.666667 0 0 1-5.12-309.248l5.12-0.085333h415.573333z" fill="#494ed3" p-id="25134"></path></svg>